<svg xmlns="http://www.w3.org/2000/svg" width="82" height="44" viewBox="0 0 82 44">
    <g fill="none" fill-rule="evenodd">
        <path fill="#2D3C81" d="M68.659.006H4.244L.02 19.542h64.414L68.66.006"/>
        <path fill="#E77D33" d="M81.989.006H64.297l-4.224 19.536h17.691L81.99.006"/>
        <path fill="#FFFFFE" d="M68.564 16.29c-.49 0-.725-.287-.62-.717l2.086-8.65c.055-.225.113-.368-.004-.368s-.795.39-1.396.656c-.339.143-1.264.492-1.754.492s-.533-.308-.434-.718l.346-1.434c.114-.472.317-.636.72-.759.328-.102 1.103-.41 1.921-.8.95-.45 1.863-.942 2.118-1.127.255-.184.498-.225.802-.225h2.009c.56 0 .823.266.705.758l-2.948 12.216c-.08.328-.42.676-.818.676h-2.733M5.845 16.24H3.262l8.68-12.16h2.707l2.97 12.16h-2.705l-.753-3.316h-4.51l1.333-1.956h2.735L12.677 6.4l-6.832 9.84M20.428 11.46l1.77-7.38h2.517l-1.77 7.38c-.466 1.94.41 2.91 2.626 2.91 2.215 0 3.556-.97 4.02-2.91l1.771-7.38h2.517l-1.77 7.38c-.779 3.244-3.114 4.866-7.008 4.866-3.893 0-5.45-1.622-4.673-4.865M45.606 4.08l-.469 1.955h-3.893l-2.448 10.206H36.28l2.447-10.206h-3.893l.469-1.956h10.303M50.906 14.37c2.735 0 4.442-1.415 5.12-4.244.668-2.784-.366-4.176-3.1-4.176-2.805 0-4.541 1.392-5.209 4.176-.678 2.829.384 4.244 3.189 4.244zm-5.813-4.193c.989-4.122 3.756-6.183 8.301-6.183 4.476 0 6.22 2.061 5.231 6.183-.983 4.099-3.712 6.149-8.188 6.149-4.343 0-6.124-2.05-5.344-6.15z"/>
        <path fill="#E77D33" d="M.008 26.073h80.259v-1.82H.008z"/>
        <path fill="#3F4257" d="M2.309 37.775c0-3.686 2.794-6.144 6.265-6.144 2.155 0 3.653.926 4.73 2.227l-1.205.73c-.767-.962-2.064-1.639-3.525-1.639-2.667 0-4.695 1.995-4.695 4.826 0 2.814 2.028 4.844 4.695 4.844 1.46 0 2.667-.695 3.27-1.282v-2.422H7.66v-1.318h5.698v4.292c-1.132 1.228-2.794 2.048-4.785 2.048-3.47 0-6.265-2.476-6.265-6.162M27.334 35.407c0-1.336-.987-2.262-2.43-2.262h-3.196v4.541h3.196c1.443 0 2.43-.944 2.43-2.28zm-.092 8.298l-3.105-4.719h-2.43v4.719h-1.515V31.827h4.895c2.228 0 3.817 1.39 3.817 3.58 0 2.137-1.497 3.312-3.16 3.454l3.288 4.844h-1.79zM45.691 37.775c0-2.778-1.753-4.826-4.475-4.826-2.74 0-4.475 2.048-4.475 4.826 0 2.76 1.735 4.826 4.475 4.826 2.722 0 4.475-2.066 4.475-4.826zm-10.521 0c0-3.508 2.43-6.144 6.046-6.144 3.598 0 6.046 2.636 6.046 6.144s-2.448 6.144-6.046 6.144c-3.617 0-6.046-2.636-6.046-6.144zM54.003 39.093v-7.266h1.516v7.23c0 2.173 1.205 3.544 3.452 3.544s3.452-1.371 3.452-3.544v-7.23h1.516v7.248c0 2.956-1.662 4.844-4.968 4.844s-4.968-1.906-4.968-4.826M78.297 35.407c0-1.336-.986-2.262-2.43-2.262h-3.196v4.523h3.197c1.443 0 2.43-.926 2.43-2.261zm-7.142 8.298V31.827h4.895c2.448 0 3.818 1.639 3.818 3.58 0 1.94-1.407 3.579-3.818 3.579h-3.379v4.719h-1.516z"/>
    </g>
</svg>
