<?xml version="1.0" standalone="no"?>
<!DOCTYPE svg PUBLIC "-//W3C//DTD SVG 20010904//EN"
 "http://www.w3.org/TR/2001/REC-SVG-20010904/DTD/svg10.dtd">
<svg version="1.0" xmlns="http://www.w3.org/2000/svg"
 width="180.000000pt" height="90.000000pt" viewBox="0 0 180.000000 90.000000"
 preserveAspectRatio="xMidYMid meet">
<metadata>
Created by potrace 1.15, written by Peter Selinger 2001-2017
</metadata>
<g transform="translate(0.000000,90.000000) scale(0.100000,-0.100000)"
fill="#000000" stroke="none">
<path d="M1345 631 c-80 -36 -120 -111 -113 -211 11 -159 189 -239 325 -147
32 22 33 23 33 100 l0 77 -96 0 c-93 0 -95 -1 -92 -22 3 -21 9 -23 71 -26 l67
-3 0 -38 c0 -31 -5 -42 -26 -56 -125 -82 -275 55 -219 201 25 66 77 98 150 92
39 -3 62 -11 79 -27 20 -19 28 -21 46 -11 l22 12 -24 25 c-49 54 -147 69 -223
34z"/>
<path d="M210 440 l0 -200 25 0 c25 0 25 1 25 80 l0 80 70 0 c111 0 160 36
160 118 0 53 -20 94 -55 110 -14 7 -70 12 -125 12 l-100 0 0 -200z m211 131
c25 -31 24 -69 -3 -98 -18 -20 -31 -23 -90 -23 l-68 0 0 76 0 76 71 -4 c60 -3
74 -8 90 -27z"/>
<path d="M660 440 l0 -200 25 0 25 0 1 158 1 157 19 -40 c10 -22 40 -93 66
-157 25 -65 52 -118 58 -118 6 0 40 71 76 158 l64 157 3 -157 3 -158 24 0 25
0 0 201 0 200 -37 -3 -38 -3 -56 -138 c-32 -76 -59 -141 -62 -143 -2 -3 -31
61 -63 141 l-59 145 -37 0 -38 0 0 -200z"/>
</g>
</svg>
